<svg width="123" height="36" fill="none" xmlns="http://www.w3.org/2000/svg"><path d="M30.95 34.022c-1.24-.23-2.206-1.245-2.901-3.052l-3.043-7.89h-.003l-.057-.15-.56-1.447c-.376.104-.712.204-.998.297-1.045.328-2.1.682-3.145 1.055l.3.81.242.645.033.093 2.083 5.62c.383.967.58 1.73.58 2.277 0 .644-.27 1.088-.798 1.33-.53.243-1.407.398-2.627.462v.968c1.348-.098 3.405-.143 6.165-.143 1.832 0 3.353.033 4.556.102.208.012.407.026.596.04v-.967a3.076 3.076 0 0 1-.423-.05Z" fill="#231F20"/><path d="M24.386 21.483c-.376.104-.712.204-.998.297-1.045.328-2.1.682-3.145 1.055l-.284-.77-.385-.968L14.18 6.619l-5.488 14.48-.383.967-1.979 5.13c-.437 1.196-.728 2.19-.865 2.99a5.845 5.845 0 0 0-.097.982c0 .178.012.345.033.502.002.019.005.04.01.06.006.063.018.125.03.187.14.623.454 1.1.965 1.429.688.456 1.743.699 3.152.727v.968a104.098 104.098 0 0 0-5.538-.143c-1.445 0-2.648.045-3.613.143v-.968a3.45 3.45 0 0 0 .468-.145c.882-.337 1.65-1.01 2.31-2.016h.003c.376-.577.718-1.26 1.023-2.051L15.534.52h.769l8.084 20.963ZM91.523 34.032c-.045.016-.09.028-.137.04v.951c.04 0 .076.005.116.005.056.007.12.007.177.012v-.968a1.903 1.903 0 0 1-.156-.04Z" fill="#231F20"/><path d="M97.385 33.345c-.688-.45-1.034-1.175-1.034-2.178 0-.905.315-2.225.963-3.972l1.419-3.687.435-1.136.12-.307.055-.136-.024-.007c-.26-.09-.52-.17-.78-.254l-.163-.052-.62 1.597-2.563 6.644c-.899 2.354-2.126 3.75-3.67 4.175a2.136 2.136 0 0 1-.132.033c-.003.002-.003.005-.005.007v.968c.035-.005.076-.005.116-.012l.177-.017c.91-.074 2.017-.114 3.32-.114 1.863 0 3.71.045 5.538.143v-.968c-1.41-.028-2.46-.27-3.152-.727Z" fill="#231F20"/><path d="M122.352 34.072v.968c-1.284-.098-2.998-.143-5.148-.143-2.764 0-4.816.045-6.169.143v-.968c1.22-.064 2.098-.219 2.625-.461.534-.242.797-.687.797-1.331 0-.547-.194-1.31-.577-2.278l-.057-.156-.253-.69-.229-.61-.256-.693-2.142-5.788-.39-.968-5.389-14.479-5.493 14.48-.328.832-.024-.008c-.26-.09-.52-.17-.78-.254l-.163-.052L106.511.52h.768l11.752 30.449c.232.604.494 1.12.788 1.547.423.62.91 1.053 1.466 1.303.331.152.688.236 1.066.252ZM59.812 31.417c-.483.646-.906 1.112-1.275 1.402-.37.293-.825.438-1.373.438-.608 0-1.09-.295-1.445-.87-.35-.583-.688-1.614-1.01-3.102l-1.204-4.308c-.449-2.03-1.153-3.516-2.123-4.45-.723-.709-1.776-1.25-3.161-1.626h-.003a15.047 15.047 0 0 0-1.456-.311l-.355-.058-.224-.04c1.702-.27 3.166-.732 4.381-1.383.281-.146.546-.307.8-.476 0 0 0-.002.002 0 .099-.066.191-.133.286-.2 1.395-1.02 2.39-2.16 2.981-3.44.596-1.274.894-2.543.894-3.798 0-2.484-1.002-4.507-3.01-6.076C50.512 1.552 47.644.773 43.924.773c-.775 0-1.463.011-2.076.047l-5.2.045c-2.567 0-4.523-.045-5.87-.145v.97c1.15.062 1.995.195 2.522.385.532.198.894.566 1.083 1.12.194.547.293 1.433.293 2.662V29.87c0 1.23-.099 2.111-.293 2.665-.189.547-.55.915-1.083 1.113-.5.18-1.286.306-2.35.375l-.173.01v.967c.185-.014.383-.026.596-.035 1.33-.074 3.185-.107 5.566-.107 2.6 0 4.64.045 6.113.142v-.967c-1.152-.064-1.996-.195-2.528-.385-.527-.198-.889-.566-1.083-1.113-.19-.554-.288-1.436-.288-2.665V19.44a130.5 130.5 0 0 1 5.114-.683c.156.007.31.024.454.052.447.062.84.176 1.19.343 0 0 0-.003.002 0 .244.109.461.247.66.406.671.55 1.175 1.274 1.513 2.18.338.899.7 2.19 1.083 3.872l1.062 4.206c.418 1.937 1.05 3.297 1.903 4.07.849.772 1.932 1.164 3.251 1.164 1.216 0 2.197-.242 2.935-.727.74-.483 1.48-1.28 2.213-2.375l-.721-.53Zm-15.09-13.738c-1.876.219-3.735.478-5.57.777V5.857c0-1.164.1-2.035.29-2.617.193-.582.538-.986 1.037-1.21.497-.226 1.244-.34 2.242-.34 2.82 0 4.861.68 6.11 2.035 1.255 1.353 1.882 3.354 1.882 6s-.596 4.49-1.783 5.907c-.518.62-1.225 1.132-2.12 1.498a8.642 8.642 0 0 1-2.089.55ZM91.523 34.032a2.136 2.136 0 0 1-.132.033c-.003.002-.003.005-.005.007v.951c-1.49-.086-3.32-.126-5.486-.126-1.73 0-3.388.045-4.96.143v-.968c.768-.028 1.33-.126 1.685-.288.35-.161.527-.404.527-.727 0-.323-.16-.708-.48-1.165l-7.03-10.65c-.81-1.233-1.51-1.83-2.102-2.25a.96.96 0 0 0-.484-.177c-.721-.06-1.504-.116-2.469-.173V29.91c0 1.229.1 2.11.289 2.665.194.546.555.915 1.083 1.112.532.19 1.376.32 2.527.385v.968c-1.473-.098-3.513-.143-6.117-.143-2.757 0-4.81.045-6.164.143v-.968c1.158-.064 2.002-.195 2.53-.385a1.733 1.733 0 0 0 1.083-1.112c.194-.554.293-1.436.293-2.665V5.898c0-1.23-.1-2.116-.293-2.663-.19-.554-.551-.922-1.083-1.12-.528-.19-1.372-.323-2.53-.384V.76c1.355.1 3.407.145 6.164.145 2.568 0 4.609-.045 6.117-.145v.97c-1.151.061-1.995.195-2.527.385-.528.197-.89.565-1.083 1.12-.19.546-.289 1.433-.289 2.662V16.59s.012 0 .019.003c1.859.116 3.698-.566 4.956-1.95.18-.195.35-.401.513-.613l4.628-5.907c1.634-2.035 2.452-3.585 2.452-4.648 0-1.129-.998-1.711-2.987-1.744V.76c1.835.1 3.675.145 5.538.145 1.766 0 3.13-.045 4.096-.145v.97a8.511 8.511 0 0 0-2.99 1.043c-.926.53-1.827 1.36-2.692 2.49l-7.85 10.121 1.692 2.734.814 1.146.104.14 8.564 11.717c.544.806 1.147 1.44 1.807 1.907.62.449 1.38.777 2.274 1.003h-.002Z" fill="#231F20"/><path d="M91.523 34.032c-.045.016-.09.028-.137.04.002-.002.002-.005.005-.007.044-.01.09-.021.132-.033ZM66.109 16.362v2.059h-.017a148.78 148.78 0 0 0-17.871.48h-.003c-.515.045-1.028.095-1.539.145a64.02 64.02 0 0 0-.766.105h-.002c-2.4.325-4.659.665-6.758 1.012-1.585.26-3.079.523-4.477.785-4.168.777-7.462 1.53-9.67 2.132h-.003c-.392.107-.747.21-1.069.307-1.035.311-2.08.644-3.116.996-.343.119-.684.235-1.024.356-5.526 1.957-10.36 4.305-14.384 6.99l-.01-.06a3.72 3.72 0 0 1-.032-.502c0-.285.033-.613.097-.982.338-.23.813-.534 1.274-.834.445-.288.866-.559 1.128-.737l.026-.019a81.026 81.026 0 0 1 6.224-3.304 82.832 82.832 0 0 1 6.126-2.456c1.045-.373 2.1-.727 3.145-1.055.286-.093.622-.193.998-.297 2.22-.63 5.928-1.508 10.29-2.361a201.3 201.3 0 0 1 4.477-.83c2.485-.43 5.079-.832 7.656-1.162 1.32-.171 2.637-.326 3.932-.454.208-.017.414-.031.622-.043h.003c4.923-.35 9.874-.44 14.743-.27ZM113.823 29.846c-.158-.09-.319-.184-.482-.274-4.228-2.356-9.132-4.39-14.575-6.055-.012-.002-.022-.007-.034-.01-.31-.097-.626-.19-.938-.282-.012-.005-.026-.007-.038-.012-5.81-1.704-12.161-2.986-18.879-3.808l-.104-.14-.813-1.146-.556-.896c.204.021.41.045.613.071 7.23.887 14.071 2.34 20.328 4.312l.03.01.164.052c.26.083.52.164.78.254.007 0 .016.005.024.008 4.48 1.464 8.659 3.201 12.414 5.168l1.328.755.256.692.229.611.253.69Z" fill="#231F20"/></svg>